<svg width="279" height="62" viewBox="0 0 279 62" fill="none" xmlns="http://www.w3.org/2000/svg">
<path d="M66.5781 23H70.5625L75.3594 0.453125H71.4219L57.125 16.4688H56.8438L60.2969 0.453125H56.2969L51.5 23H55.4531L69.7344 7.03125H70.0156L66.5781 23ZM74.3594 23H78.2188L79.7188 15.9688H86.7031L85.2188 23H89.0625L92.5781 6.40625H88.7344L87.3281 12.9375H80.3438L81.7344 6.40625H77.875L74.3594 23ZM102.312 6.0625C97.0469 6.0625 93.5156 10.2656 93.5156 16.125C93.5156 20.3906 96.0938 23.3438 100.641 23.3438C104.5 23.3438 107.594 20.7656 108.281 17.2344H104.594C104.016 18.9688 102.625 20.0625 100.75 20.0625C98.7188 20.0625 97.375 18.5 97.375 15.9688C97.375 12.0625 99.3594 9.34375 102.188 9.34375C104.25 9.34375 105.453 10.6562 105.5 12.3594H109.188C109.188 12.2656 109.188 12.2656 109.188 11.9844C109.188 8.8125 106.656 6.0625 102.312 6.0625ZM125.344 6.40625H111.469L110.844 9.4375H115.859L112.953 23H116.812L119.703 9.4375H124.719L125.344 6.40625ZM132.922 20C130.734 20 129.312 18.375 129.312 16.0156C129.312 12.4688 131.344 9.32812 134.375 9.32812C136.531 9.32812 137.828 10.8906 137.828 13.4688C137.828 17.2188 135.703 20 132.922 20ZM126.422 28.4688L128.266 19.8125H128.359C129 21.875 130.953 23.2656 133.453 23.2656C138.156 23.2656 141.688 18.9062 141.688 12.9844C141.688 8.79688 139.438 6.125 135.781 6.125C133.656 6.125 131.688 7.21875 130.578 8.95312H130.516L131.062 6.40625H127.312L122.641 28.4688H126.422ZM143.453 29.0625C146.656 29.0625 148.797 27.8594 150.859 24.0625L160.609 6.40625H156.469L149.891 19.4375H149.812L148.484 6.40625H144.641L147 22.8281C147 22.8594 146.641 23.6094 146.641 23.6406C145.938 25.3438 144.859 25.9062 143.578 25.9062C143.141 25.9062 142.281 25.8438 142.047 25.75L141.453 28.8906C141.703 28.9688 142.953 29.0625 143.453 29.0625ZM176.922 6.40625H172.328L165.078 13.2969H164.969L166.438 6.40625H162.594L159.078 23H162.922L164.5 15.5938H164.609L169.25 23H173.656L168.328 14.4531L176.922 6.40625ZM191.594 27.3281L193.141 19.9531H190.609L193.5 6.40625H189.656L186.766 19.9531H179.891L182.781 6.40625H178.938L175.422 23H189.031L188.109 27.3281H191.594ZM198.141 23L207.719 11.9844H207.906L205.547 23H209.344L212.875 6.40625H209.078L199.484 17.3125H199.297L201.641 6.40625H197.844L194.328 23H198.141ZM221 14.5781C219.484 14.5781 218.5 13.6875 218.5 12.3281C218.5 10.6094 219.922 9.4375 222.016 9.4375H224.781L223.672 14.5781H221ZM221.891 23H225.734L229.25 6.40625H222.156C217.625 6.40625 214.594 8.84375 214.594 12.4844C214.594 14.4062 215.609 16 217.297 16.7344L211.484 23H216.125L221.156 17.4531H223.062L221.891 23ZM11.625 61H15.4844L19 44.4062H4.4375L0.921875 61H4.76562L7.65625 47.4375H14.5312L11.625 61ZM27.3438 58.125C25.2031 58.125 23.8281 56.4375 23.8281 53.8594C23.8281 50.1094 25.9219 47.2812 28.8125 47.2812C30.9531 47.2812 32.3281 48.9688 32.3281 51.5469C32.3281 55.2656 30.2188 58.125 27.3438 58.125ZM28.9219 44.0625C23.7656 44.0625 19.9531 48.3281 19.9531 53.9531C19.9531 58.3906 22.8438 61.3438 27.25 61.3438C32.4062 61.3438 36.2188 57.0781 36.2188 51.4375C36.2188 47 33.3281 44.0625 28.9219 44.0625ZM48.2969 61L57.875 49.9844H58.0625L55.7031 61H59.5L63.0312 44.4062H59.2344L49.6406 55.3125H49.4531L51.7969 44.4062H48L44.4844 61H48.2969ZM72.75 44.0625C67.4844 44.0625 63.9531 48.2656 63.9531 54.125C63.9531 58.3906 66.5312 61.3438 71.0781 61.3438C74.9375 61.3438 78.0312 58.7656 78.7188 55.2344H75.0312C74.4531 56.9688 73.0625 58.0625 71.1875 58.0625C69.1562 58.0625 67.8125 56.5 67.8125 53.9688C67.8125 50.0625 69.7969 47.3438 72.625 47.3438C74.6875 47.3438 75.8906 48.6562 75.9375 50.3594H79.625C79.625 50.2656 79.625 50.2656 79.625 49.9844C79.625 46.8125 77.0938 44.0625 72.75 44.0625ZM90.6875 61H94.5469L98.0625 44.4062H83.5L79.9844 61H83.8281L86.7188 47.4375H93.5938L90.6875 61ZM106.406 58.125C104.266 58.125 102.891 56.4375 102.891 53.8594C102.891 50.1094 104.984 47.2812 107.875 47.2812C110.016 47.2812 111.391 48.9688 111.391 51.5469C111.391 55.2656 109.281 58.125 106.406 58.125ZM107.984 44.0625C102.828 44.0625 99.0156 48.3281 99.0156 53.9531C99.0156 58.3906 101.906 61.3438 106.312 61.3438C111.469 61.3438 115.281 57.0781 115.281 51.4375C115.281 47 112.391 44.0625 107.984 44.0625ZM122.719 53.3906C122.766 53.2656 124.391 47.5312 124.406 47.4375H129.172L126.281 61H130.078L133.594 44.4062H121.703C121.688 44.4531 119.359 52.9219 119.281 53.1406C118.406 56.2969 117.375 57.7188 116 57.7188C115.672 57.7188 115.359 57.6875 115.109 57.6094L114.406 60.9844C114.719 61.0938 115.281 61.1719 115.75 61.1719C119.344 61.1719 121.125 59.1719 122.719 53.3906ZM141.875 52.3594C143.422 52.3594 144.359 53.2031 144.359 54.5156C144.359 56.3906 142.875 57.9531 140.656 57.9531H138L139.203 52.3594H141.875ZM133.516 61H140.453C145.062 61 148.219 58.0312 148.219 54.0781C148.219 51.3125 146.125 49.3594 142.734 49.3594H139.828L140.875 44.4062H137.031L133.516 61ZM163.844 55.8125C163.859 54.1406 162.953 52.9062 161.391 52.4219L161.422 52.2812C163.234 51.9375 164.609 50.3281 164.641 48.5156C164.656 45.9688 162.141 44.0938 158.5 44.0938C154.484 44.0938 151.75 46.2031 151.078 49.7344H154.719C155.062 48.2031 156.359 47.2031 158.156 47.2031C159.75 47.2031 160.797 48.0312 160.766 49.1406C160.75 50.3438 159.547 51.2031 157.906 51.2031H155.656L155.094 53.8906H157.375C159.078 53.8906 160.016 54.5469 160 55.7031C160 57.0938 158.594 58.1719 156.672 58.1719C154.812 58.1719 153.5 57.0312 153.453 55.5156H149.812C149.828 58.9375 152.484 61.3125 156.484 61.3125C160.75 61.3125 163.812 59 163.844 55.8125ZM174.125 58.125C171.984 58.125 170.609 56.4375 170.609 53.8594C170.609 50.1094 172.703 47.2812 175.594 47.2812C177.734 47.2812 179.109 48.9688 179.109 51.5469C179.109 55.2656 177 58.125 174.125 58.125ZM175.703 44.0625C170.547 44.0625 166.734 48.3281 166.734 53.9531C166.734 58.3906 169.625 61.3438 174.031 61.3438C179.188 61.3438 183 57.0781 183 51.4375C183 47 180.109 44.0625 175.703 44.0625ZM183.953 61H192.078C196.312 61 199.125 58.8125 199.125 55.5312C199.125 53.8125 197.938 52.5938 196.031 52.3594L196.078 52.125C198.281 51.7656 199.828 50.1406 199.828 48.1875C199.828 45.8125 197.969 44.4062 194.844 44.4062H187.469L183.953 61ZM192.453 53.7031C194.297 53.7031 195.156 54.3281 195.156 55.6719C195.156 57.2344 193.859 58.2812 191.812 58.2812H188.328L189.312 53.7031H192.453ZM193.75 47.0781C195.234 47.0781 195.938 47.6094 195.938 48.75C195.938 50.2031 194.672 51.1719 192.75 51.1719H189.844L190.719 47.0781H193.75ZM207.594 58.2969C205.984 58.2969 204.875 57.4688 204.875 56.1875C204.875 54.7812 206.141 53.8906 208.25 53.8125L212.125 53.625L211.766 55.2031C211.359 57.0156 209.609 58.2969 207.594 58.2969ZM206.188 61.2656C208.234 61.2656 209.969 60.375 211 59H211.062L210.641 61H214.328L216.594 50.2969C216.672 49.9375 216.719 49.4062 216.719 48.9219C216.719 46.0469 214.172 44.0625 210.359 44.0625C206.375 44.0625 203.547 46.2031 203 49.3594H206.719C207.031 48.0312 208.188 47.1719 210.062 47.1719C211.891 47.1719 212.938 48.0156 212.938 49.3594C212.938 49.5781 212.938 49.7812 212.875 50.0469L212.656 51.0469L208.141 51.2344C203.75 51.4219 201.109 53.375 201.109 56.7031C201.109 59.3594 203.359 61.2656 206.188 61.2656ZM217.516 61H221.375L222.875 53.9688H229.859L228.375 61H232.219L235.734 44.4062H231.891L230.484 50.9375H223.5L224.891 44.4062H221.031L217.516 61ZM239.391 61L248.969 49.9844H249.156L246.797 61H250.594L254.125 44.4062H250.328L240.734 55.3125H240.547L242.891 44.4062H239.094L235.578 61H239.391ZM269.453 61.3438C274.641 61.3438 278.312 57.1719 278.312 51.4375C278.312 47 275.484 44.0625 271.062 44.0625C266.859 44.0625 263.688 46.8906 262.594 50.9219H260L261.391 44.3906H257.547L254.016 61H257.859L259.359 53.9688H262.219V54.1719C262.344 58.5469 265.141 61.3438 269.453 61.3438ZM269.547 58.1719C267.406 58.1719 266.078 56.4688 266.078 53.9375C266.078 50.0938 268.234 47.2188 270.969 47.2188C273.109 47.2188 274.422 48.9219 274.422 51.4531C274.422 55.2969 272.266 58.1719 269.547 58.1719Z" fill="url(#paint0_linear_8_50)"/>
<defs>
<linearGradient id="paint0_linear_8_50" x1="76.298" y1="-6.99999" x2="251.319" y2="34.2439" gradientUnits="userSpaceOnUse">
<stop stop-color="#4A89D3"/>
<stop offset="1" stop-color="#121B74"/>
</linearGradient>
</defs>
</svg>
