<svg width="249" height="40" viewBox="0 0 249 40" fill="none" xmlns="http://www.w3.org/2000/svg">
<path d="M30.0059 32L36.6016 0.998047H27.2773L24.7422 12.8359H14.2578L16.793 0.998047H7.46875L0.873047 32H10.1973L12.7754 19.9258H23.2598L20.6816 32H30.0059ZM48.0527 26.0918C46.1191 26.0918 44.8301 24.3086 44.8301 21.666C44.8301 17.3691 47 14.1895 49.9434 14.1895C51.877 14.1895 53.1445 15.9512 53.1445 18.6152C53.1445 22.8262 50.9316 26.0918 48.0527 26.0918ZM50.373 7.67969C42.0801 7.67969 36.1934 13.5664 36.1934 21.8379C36.1934 28.2617 40.834 32.6016 47.666 32.6016C55.959 32.6016 61.8457 26.7148 61.8457 18.4434C61.8457 12.0195 57.2051 7.67969 50.373 7.67969ZM70.2676 32L73.4258 17.1328H73.791L75.7031 30.1523H81.375L88.8086 17.1328H89.1953L86.0371 32H93.8574L98.9062 8.28125H87.627L80.666 21.1074H80.2363L78.7969 8.28125H67.4961L62.4473 32H70.2676ZM107.951 17.3477C108.51 15.0918 110.379 13.5664 112.592 13.5664C114.633 13.5664 116.051 14.8555 116.051 16.6602C116.051 16.8965 116.029 17.2402 115.986 17.3477H107.951ZM110.744 32.5801C117.061 32.5801 121.572 29.25 122.797 24.2656H114.891C114.482 25.6406 113.043 26.5859 111.174 26.5859C108.617 26.5859 107.113 24.8672 107.113 22.6758C107.113 22.4609 107.135 22.2246 107.178 21.9883H123.334C123.635 20.7852 123.764 19.1953 123.764 17.9062C123.764 11.7188 119.338 7.67969 112.979 7.67969C104.9 7.67969 99.5293 13.6094 99.5293 21.7305C99.5293 28.5625 103.955 32.5801 110.744 32.5801ZM138.459 25.6406C136.461 25.6406 135.15 24.0723 135.15 21.666C135.15 17.7773 137.535 14.3828 140.242 14.3828C142.24 14.3828 143.551 15.9727 143.551 18.3574C143.551 22.3965 141.273 25.6406 138.459 25.6406ZM131.219 39.584L133.754 27.7676H133.904C134.85 30.7109 137.234 32.3438 140.586 32.3438C147.375 32.3438 152.359 25.791 152.359 16.918C152.359 11.3535 149.352 7.9375 144.496 7.9375C141.531 7.9375 138.975 9.09766 137.127 11.5898H136.955L137.664 8.28125H129.371L122.711 39.584H131.219ZM164.262 26.5859C162.672 26.5859 161.576 25.8125 161.576 24.6523C161.576 23.2988 162.865 22.375 164.799 22.332L168.473 22.2461L168.15 23.7715C167.807 25.3828 166.131 26.5859 164.262 26.5859ZM160.287 32.3438C163.273 32.3438 165.701 31.0762 166.861 29.207H167.033L166.432 32H174.703L177.926 16.832C178.033 16.3594 178.119 15.5215 178.119 14.9199C178.119 10.6016 173.844 7.67969 167.549 7.67969C161.49 7.67969 157.021 10.709 156.076 15.6719H163.746C164.176 14.4258 165.357 13.7812 166.947 13.7812C168.666 13.7812 169.826 14.5117 169.826 15.6074C169.826 15.7578 169.805 15.9082 169.74 16.2734L169.461 17.6484L164.283 17.7559C157.537 17.9062 153.391 21 153.391 25.9199C153.391 29.6152 156.355 32.3438 160.287 32.3438ZM203.879 32L208.928 8.2168H217.543L219.09 0.998047H192.75L191.203 8.2168H199.818L194.77 32H203.879ZM239.199 13.4805H248.029C248.094 13.1367 248.137 12.6426 248.137 12.1055C248.137 5.33789 242.723 0.460938 235.225 0.460938C224.182 0.460938 217.113 7.91602 217.113 19.5391C217.113 27.4238 222.527 32.5371 230.842 32.5371C239.221 32.5371 245.58 27.5527 246.654 20.1406H237.824C236.922 23.2129 234.494 25.125 231.486 25.125C228.393 25.125 226.502 22.7832 226.502 18.9805C226.502 12.4277 229.725 7.78711 234.279 7.78711C237.072 7.78711 239.221 9.89258 239.221 12.6211C239.221 13.2656 239.221 13.3516 239.199 13.4805Z" fill="black"/>
</svg>
