<svg width="279" height="43" viewBox="0 0 279 43" fill="none" xmlns="http://www.w3.org/2000/svg">
<path d="M7.7124 0.884277L0.689941 34H6.67969L8.99756 23.145H15.9512C24.144 23.145 30.019 18.2798 30.019 10.3164C30.019 4.5791 25.7275 0.884277 19.646 0.884277H7.7124ZM12.6694 5.84131H18.0854C21.7344 5.84131 23.9604 7.6084 23.9604 10.8442C23.9604 15.4341 20.7705 18.2339 15.7905 18.2339H10.0073L12.6694 5.84131ZM36.1694 19.3125C37.0186 16.0537 39.3594 13.5981 42.6411 13.5981C46.0835 13.5981 47.644 15.9849 47.644 18.624C47.644 18.8535 47.644 19.1289 47.6211 19.3125H36.1694ZM40.6904 34.5049C46.313 34.5049 50.6963 31.0625 51.9585 26.335H46.6113C45.7163 28.5381 43.6968 29.9839 40.8511 29.9839C37.5923 29.9839 35.5269 27.5972 35.5269 23.9023C35.5269 23.6499 35.5269 23.3745 35.5498 23.1221H52.7617C52.9683 21.9976 53.0371 20.6206 53.0371 19.4961C53.0371 13.1392 49.021 9.12305 42.8018 9.12305C35.3433 9.12305 30.1797 15.48 30.1797 23.627C30.1797 30.1216 33.9434 34.5049 40.6904 34.5049ZM75.0225 14.0801L75.9404 9.62793H59.7612L54.5747 34H60.2202L64.4888 14.0801H75.0225ZM80.186 34L94.2539 17.8208H94.5293L91.064 34H96.6406L101.827 9.62793H96.2505L82.1597 25.6465H81.8843L85.3267 9.62793H79.75L74.5864 34H80.186ZM116.102 9.12305C108.368 9.12305 103.181 15.2964 103.181 23.9023C103.181 30.1675 106.968 34.5049 113.646 34.5049C119.314 34.5049 123.858 30.7183 124.868 25.5317H119.452C118.603 28.0791 116.561 29.6855 113.807 29.6855C110.823 29.6855 108.85 27.3906 108.85 23.6729C108.85 17.9355 111.764 13.9424 115.918 13.9424C118.947 13.9424 120.714 15.8701 120.783 18.3716H126.199C126.199 18.2339 126.199 18.2339 126.199 17.8208C126.199 13.1621 122.481 9.12305 116.102 9.12305ZM149.929 9.62793H129.55L128.632 14.0801H135.999L131.73 34H137.398L141.644 14.0801H149.011L149.929 9.62793ZM161.059 29.5938C157.846 29.5938 155.758 27.207 155.758 23.7417C155.758 18.5322 158.741 13.9194 163.193 13.9194C166.36 13.9194 168.265 16.2144 168.265 20.001C168.265 25.5088 165.144 29.5938 161.059 29.5938ZM151.512 42.0322L154.22 29.3184H154.358C155.299 32.3477 158.167 34.3901 161.839 34.3901C168.747 34.3901 173.934 27.9873 173.934 19.2896C173.934 13.1392 170.629 9.21484 165.259 9.21484C162.138 9.21484 159.246 10.8213 157.617 13.3687H157.525L158.328 9.62793H152.82L145.958 42.0322H151.512ZM185.271 30.0298C182.907 30.0298 181.277 28.8135 181.277 26.9316C181.277 24.8662 183.136 23.5581 186.234 23.4434L191.926 23.168L191.398 25.4858C190.801 28.1479 188.231 30.0298 185.271 30.0298ZM183.205 34.3901C186.211 34.3901 188.759 33.082 190.273 31.0625H190.365L189.746 34H195.162L198.489 18.2798C198.604 17.752 198.673 16.9717 198.673 16.2603C198.673 12.0376 194.932 9.12305 189.333 9.12305C183.48 9.12305 179.327 12.2671 178.523 16.9028H183.985C184.444 14.9521 186.143 13.6899 188.896 13.6899C191.582 13.6899 193.119 14.9292 193.119 16.9028C193.119 17.2241 193.119 17.5225 193.027 17.9126L192.706 19.3813L186.074 19.6567C179.625 19.9321 175.747 22.8008 175.747 27.689C175.747 31.5903 179.051 34.3901 183.205 34.3901ZM223.596 40.3569L225.868 29.5249H222.15L226.396 9.62793H220.75L216.504 29.5249H206.407L210.652 9.62793H205.007L199.843 34H219.832L218.478 40.3569H223.596ZM233.211 34L247.279 17.8208H247.555L244.089 34H249.666L254.853 9.62793H249.276L235.185 25.6465H234.91L238.352 9.62793H232.775L227.612 34H233.211ZM266.786 21.6304C264.56 21.6304 263.114 20.3223 263.114 18.3257C263.114 15.8013 265.203 14.0801 268.278 14.0801H272.34L270.71 21.6304H266.786ZM268.094 34H273.74L278.903 9.62793H268.484C261.829 9.62793 257.377 13.208 257.377 18.5552C257.377 21.3779 258.869 23.7188 261.347 24.7974L252.81 34H259.626L267.016 25.853H269.815L268.094 34Z" fill="url(#paint0_linear_117_45)"/>
<defs>
<linearGradient id="paint0_linear_117_45" x1="166.5" y1="85" x2="145.477" y2="-91.1989" gradientUnits="userSpaceOnUse">
<stop stop-color="#D3D3D3"/>
<stop offset="1"/>
</linearGradient>
</defs>
</svg>
