<svg width="246" height="29" viewBox="0 0 246 29" fill="none" xmlns="http://www.w3.org/2000/svg">
<path d="M16.9531 23L21.75 0.453125H5.21875L0.421875 23H1.67188L6.21875 1.59375H20.2812L15.7188 23H16.9531ZM28.4844 22.1562C25.2188 22.1562 23.1094 19.8438 23.1094 16.3281C23.1094 11.3594 26.1875 7.59375 30.2188 7.59375C33.4844 7.59375 35.6094 9.90625 35.6094 13.4219C35.6094 18.3906 32.5312 22.1562 28.4844 22.1562ZM30.2188 6.48438C25.4688 6.48438 21.8906 10.7344 21.8906 16.3594C21.8906 20.5156 24.4688 23.2656 28.4844 23.2656C33.25 23.2656 36.8281 19.0156 36.8281 13.3906C36.8281 9.23438 34.2344 6.48438 30.2188 6.48438ZM39.2344 23L52.5 8.76562H52.5938L49.5469 23H50.7656L54.2188 6.75H53L39.7344 20.9844H39.6406L42.6719 6.75H41.4531L38 23H39.2344ZM63.6719 6.48438C58.9375 6.48438 55.4219 10.7812 55.4219 16.375C55.4219 20.4531 57.9062 23.2656 61.8906 23.2656C65.0469 23.2656 67.6094 21.4219 68.6406 18.5625H67.4219C66.5156 20.75 64.4375 22.1562 61.9062 22.1562C58.7656 22.1562 56.6406 19.8594 56.6406 16.3438C56.6406 11.375 59.6875 7.59375 63.6562 7.59375C66.4219 7.59375 68.3438 9.32812 68.625 11.7969H69.8125C69.8125 11.7812 69.8125 11.7812 69.8125 11.7656C69.5469 8.73438 67.2031 6.48438 63.6719 6.48438ZM85.3281 6.75H83.5938L73.5781 14.2031H73.5L75.0781 6.75H73.8594L70.4062 23H71.625L73.3438 14.9531H73.4219L80.7969 23H82.375L74.75 14.5938L85.3281 6.75ZM91.7188 23H92.9375L94.6094 15.1094H104.734L103.062 23H104.266L107.734 6.75H106.516L104.953 14.0625H94.8281L96.4062 6.75H95.1719L91.7188 23ZM115.516 22.1562C112.25 22.1562 110.141 19.8438 110.141 16.3281C110.141 11.3594 113.219 7.59375 117.25 7.59375C120.516 7.59375 122.641 9.90625 122.641 13.4219C122.641 18.3906 119.562 22.1562 115.516 22.1562ZM117.25 6.48438C112.5 6.48438 108.922 10.7344 108.922 16.3594C108.922 20.5156 111.5 23.2656 115.516 23.2656C120.281 23.2656 123.859 19.0156 123.859 13.3906C123.859 9.23438 121.266 6.48438 117.25 6.48438ZM126.25 23L129.219 9.03125H129.297L133.141 22.875H134.094L143.703 9.03125H143.781L140.812 23H142.031L145.484 6.75H143.984L133.891 21.375H133.828L129.875 6.75H128.484L125.031 23H126.25ZM148.109 14.0156C148.781 10.2656 151.469 7.57812 154.859 7.57812C157.984 7.57812 159.766 9.73438 159.766 12.8281C159.766 13.375 159.75 13.6562 159.672 14.0156H148.109ZM152.969 23.2656C156.391 23.2656 159.047 21.3438 160.016 18.3594H158.781C157.891 20.75 155.812 22.1719 153.031 22.1719C149.828 22.1719 147.812 19.9844 147.812 16.4688C147.812 16.125 147.859 15.6406 147.938 15.0469H160.75C160.891 14.4531 160.984 13.625 160.984 12.9062C160.984 8.95312 158.641 6.48438 154.891 6.48438C150.109 6.48438 146.594 10.8438 146.594 16.5625C146.594 20.5781 148.984 23.2656 152.969 23.2656ZM169.953 22.1562C166.859 22.1562 164.797 19.8906 164.797 16.5469C164.797 11.7344 167.938 7.59375 171.922 7.59375C175.031 7.59375 176.938 9.82812 176.938 13.4688C176.938 18.3594 173.875 22.1562 169.953 22.1562ZM162.031 28.3281L164.156 18.3438H164.203C164.547 21.2031 166.906 23.25 169.938 23.25C174.578 23.25 178.141 18.9844 178.141 13.4062C178.141 9.21875 175.797 6.5 172.156 6.5C169.594 6.5 167.219 8 165.906 10.4062H165.828L166.609 6.75H165.422L160.828 28.3281H162.031ZM184.812 22.1875C182.391 22.1875 180.734 20.8594 180.734 18.9062C180.734 16.5469 182.734 15.125 186.25 14.9375L191.625 14.625L191.031 17.3438C190.422 20.1406 187.797 22.1875 184.812 22.1875ZM184.578 23.25C187.016 23.25 189.281 22 190.438 20.0781H190.5L189.875 23H191.062L193.328 12.2969C193.438 11.8125 193.484 11.3281 193.484 10.9062C193.484 8.25 191.359 6.48438 188.125 6.48438C184.625 6.48438 182.047 8.42188 181.484 11.3438H182.734C183.234 9.03125 185.219 7.59375 188.031 7.59375C190.688 7.59375 192.266 8.89062 192.266 11.0312C192.266 11.4062 192.219 11.8125 192.125 12.25L191.828 13.6094L186.25 13.9219C181.969 14.1562 179.516 15.9688 179.516 19C179.516 21.5 181.641 23.25 184.578 23.25ZM209.688 23L214.234 1.59375H222.172L222.406 0.453125H205.281L205.047 1.59375H212.984L208.422 23H209.688ZM238.828 7.78125H240.078C240.078 7.73438 240.078 7.71875 240.078 7.65625C239.969 3.23438 236.641 0.125 231.688 0.125C225.203 0.125 220.312 6.14062 220.312 14.0312C220.312 19.6094 223.859 23.3281 229.188 23.3281C233.625 23.3281 237.156 20.8438 238.484 16.7812H237.188C235.953 20.1562 232.969 22.1719 229.234 22.1719C224.609 22.1719 221.562 18.9062 221.562 13.9375C221.562 6.79688 225.922 1.28125 231.641 1.28125C235.906 1.28125 238.703 3.92188 238.828 7.67188C238.828 7.70312 238.828 7.75 238.828 7.78125ZM242.281 23.125C242.844 23.125 243.312 22.6562 243.312 22.0781C243.312 21.5156 242.844 21.0469 242.281 21.0469C241.703 21.0469 241.234 21.5156 241.234 22.0781C241.234 22.6562 241.703 23.125 242.281 23.125ZM244.859 10.9844C245.438 10.9844 245.891 10.5156 245.891 9.9375C245.891 9.35938 245.438 8.90625 244.859 8.90625C244.281 8.90625 243.828 9.35938 243.828 9.9375C243.828 10.5156 244.281 10.9844 244.859 10.9844Z" fill="black"/>
</svg>
