<svg width="352" height="19" viewBox="0 0 352 19" fill="none" xmlns="http://www.w3.org/2000/svg">
<path d="M11.7676 15L14.7656 0.908203H13.4082L12.0703 7.17773H3.85742L5.18555 0.908203H3.82812L0.830078 15H2.1875L3.60352 8.38867H11.8164L10.4102 15H11.7676ZM16.3965 9.15039C16.8164 7.23633 18.1445 5.81055 19.9512 5.81055C21.7676 5.81055 22.6367 7.09961 22.6367 8.67188C22.6367 8.86719 22.6367 8.99414 22.6074 9.15039H16.3965ZM18.9746 15.1855C21.1328 15.1855 22.8613 13.8477 23.418 11.9727H22.1387C21.6406 13.2422 20.5273 14.0332 19.0039 14.0332C17.2852 14.0332 16.1914 12.793 16.1914 10.7812C16.1914 10.625 16.2012 10.4199 16.2305 10.1953H23.8379C23.916 9.78516 23.9453 9.26758 23.9453 8.83789C23.9453 6.26953 22.4219 4.67773 19.9707 4.67773C17.0117 4.67773 14.873 7.39258 14.873 10.8301C14.873 13.3789 16.3281 15.1855 18.9746 15.1855ZM31.3672 15H32.6758L34.834 4.84375H26.7969L24.6387 15H25.9473L27.8809 5.92773H33.3008L31.3672 15ZM40.1953 14.0137C38.457 14.0137 37.3242 12.7344 37.3242 10.8887C37.3242 8.18359 38.9355 5.82031 41.2598 5.82031C42.9883 5.82031 44.0234 7.06055 44.0234 9.12109C44.0234 11.9238 42.3535 14.0137 40.1953 14.0137ZM35.5469 18.3691L36.7676 12.5879H36.8164C37.1289 14.082 38.4961 15.166 40.2148 15.166C43.0957 15.166 45.293 12.5391 45.293 9.04297C45.293 6.39648 43.8477 4.67773 41.5527 4.67773C40.1074 4.67773 38.75 5.51758 38.0469 6.76758H38.0078L38.418 4.84375H37.1484L34.2676 18.3691H35.5469ZM49.6777 14.0527C48.3789 14.0527 47.4902 13.3594 47.4902 12.2852C47.4902 11.0742 48.5254 10.332 50.3418 10.2344L53.3691 10.0684L53.0664 11.4453C52.7246 12.9785 51.3086 14.0527 49.6777 14.0527ZM49.3555 15.166C50.7227 15.166 51.9434 14.5215 52.6562 13.5059H52.6855L52.3633 15H53.6133L55.0195 8.37891C55.0684 8.11523 55.0977 7.8125 55.0977 7.50977C55.0977 5.83008 53.7207 4.67773 51.6113 4.67773C49.3262 4.67773 47.6953 5.9375 47.373 7.76367H48.7207C48.9746 6.5918 49.9707 5.82031 51.5137 5.82031C52.9688 5.82031 53.7988 6.5332 53.7988 7.68555C53.7988 7.88086 53.7891 8.08594 53.7402 8.30078L53.584 9.02344L50.3516 9.19922C47.7148 9.3457 46.1816 10.4688 46.1816 12.4219C46.1816 14.0332 47.5684 15.166 49.3555 15.166ZM55.8105 15H59.9805C62.5293 15 64.2188 13.6328 64.2188 11.6992C64.2188 10.5957 63.4375 9.89258 62.3047 9.74609L62.3242 9.62891C63.6523 9.36523 64.6289 8.39844 64.6289 7.09961C64.6289 5.72266 63.584 4.84375 61.7871 4.84375H57.9688L55.8105 15ZM60.7031 10.293C62.1582 10.293 62.8809 10.7715 62.8809 11.7871C62.8809 13.0176 61.8262 13.916 60.1758 13.916H57.3438L58.1152 10.293H60.7031ZM61.5625 5.92773C62.7051 5.92773 63.291 6.37695 63.291 7.26562C63.291 8.39844 62.2754 9.21875 60.791 9.21875H58.3496L59.043 5.92773H61.5625ZM66.7188 15L74.0723 6.88477H74.1504L72.4219 15H73.7207L75.8789 4.84375H74.5703L67.2168 12.9492H67.1387L68.8672 4.84375H67.5586L65.4004 15H66.7188ZM79.248 10.625C79.4434 9.99023 80.4199 6.51367 80.5859 5.92773H84.6191L82.6855 15H83.9941L86.1523 4.84375H79.6484C79.4922 5.44922 78.252 9.84375 78.0273 10.5762C77.4121 12.7051 76.7285 13.8867 75.7422 13.8867C75.5273 13.8867 75.3418 13.8379 75.2539 13.8086L75 14.9902C75.1074 15.0293 75.3516 15.0879 75.6152 15.0879C77.4609 15.0879 78.3398 13.7012 79.248 10.625ZM90.9473 9.35547C92.2559 9.35547 92.9883 10.0098 92.9883 11.123C92.9883 12.6074 91.8359 13.916 89.9609 13.916H87.8711L88.8477 9.35547H90.9473ZM86.3379 15H89.7461C92.5293 15 94.2969 13.2617 94.2969 10.9668C94.2969 9.375 93.1543 8.28125 91.1816 8.28125H89.0723L89.8047 4.84375H88.4961L86.3379 15ZM95.2051 15H96.5137L97.5195 10.2734H103.027L102.021 15H103.33L105.488 4.84375H104.18L103.252 9.18945H97.7539L98.6816 4.84375H97.3633L95.2051 15ZM110.43 14.0234C108.662 14.0234 107.529 12.7246 107.529 10.7324C107.529 7.93945 109.189 5.82031 111.436 5.82031C113.193 5.82031 114.326 7.11914 114.326 9.11133C114.326 11.9043 112.666 14.0234 110.43 14.0234ZM111.436 4.67773C108.467 4.67773 106.221 7.32422 106.221 10.7715C106.221 13.4277 107.871 15.166 110.43 15.166C113.389 15.166 115.635 12.5195 115.635 9.07227C115.635 6.41602 113.994 4.67773 111.436 4.67773ZM121.387 18.6035C122.686 18.6035 123.613 18.1055 124.717 16.1719L131.191 4.84375H129.756L124.932 13.5938H124.893L123.545 4.84375H122.256L123.945 15.0195L123.545 15.7617C122.852 17.0801 122.158 17.5098 121.416 17.5098C121.123 17.5098 120.84 17.4512 120.635 17.3828L120.439 18.4766C120.664 18.5449 121.035 18.6035 121.387 18.6035ZM140.166 4.84375H138.438L132.92 9.4043H132.852L133.828 4.84375H132.52L130.361 15H131.67L132.715 10.0488H132.783L136.67 15H138.281L134.189 9.73633L140.166 4.84375ZM142.92 14.0527C141.621 14.0527 140.732 13.3594 140.732 12.2852C140.732 11.0742 141.768 10.332 143.584 10.2344L146.611 10.0684L146.309 11.4453C145.967 12.9785 144.551 14.0527 142.92 14.0527ZM142.598 15.166C143.965 15.166 145.186 14.5215 145.898 13.5059H145.928L145.605 15H146.855L148.262 8.37891C148.311 8.11523 148.34 7.8125 148.34 7.50977C148.34 5.83008 146.963 4.67773 144.854 4.67773C142.568 4.67773 140.938 5.9375 140.615 7.76367H141.963C142.217 6.5918 143.213 5.82031 144.756 5.82031C146.211 5.82031 147.041 6.5332 147.041 7.68555C147.041 7.88086 147.031 8.08594 146.982 8.30078L146.826 9.02344L143.594 9.19922C140.957 9.3457 139.424 10.4688 139.424 12.4219C139.424 14.0332 140.811 15.166 142.598 15.166ZM157.08 11.8945C157.09 10.7422 156.426 10.0098 155.42 9.77539L155.43 9.72656C156.611 9.52148 157.598 8.52539 157.607 7.27539C157.627 5.76172 156.309 4.6875 154.248 4.6875C152.061 4.6875 150.566 5.95703 150.098 7.85156H151.387C151.719 6.65039 152.764 5.82031 154.141 5.82031C155.479 5.82031 156.289 6.46484 156.279 7.4707C156.27 8.49609 155.264 9.26758 153.877 9.26758H152.314L152.08 10.332H153.604C154.971 10.332 155.781 10.8496 155.771 11.8945C155.771 13.125 154.58 14.043 152.998 14.043C151.504 14.043 150.557 13.125 150.518 12.0312H149.238C149.287 13.8281 150.654 15.1758 152.91 15.1758C155.254 15.1758 157.051 13.8281 157.08 11.8945ZM162.061 14.0527C160.762 14.0527 159.873 13.3594 159.873 12.2852C159.873 11.0742 160.908 10.332 162.725 10.2344L165.752 10.0684L165.449 11.4453C165.107 12.9785 163.691 14.0527 162.061 14.0527ZM161.738 15.166C163.105 15.166 164.326 14.5215 165.039 13.5059H165.068L164.746 15H165.996L167.402 8.37891C167.451 8.11523 167.48 7.8125 167.48 7.50977C167.48 5.83008 166.104 4.67773 163.994 4.67773C161.709 4.67773 160.078 5.9375 159.756 7.76367H161.104C161.357 6.5918 162.354 5.82031 163.896 5.82031C165.352 5.82031 166.182 6.5332 166.182 7.68555C166.182 7.88086 166.172 8.08594 166.123 8.30078L165.967 9.02344L162.734 9.19922C160.098 9.3457 158.564 10.4688 158.564 12.4219C158.564 14.0332 159.951 15.166 161.738 15.166ZM168.193 15H169.502L170.508 10.2734H176.016L175.01 15H176.318L178.477 4.84375H177.168L176.24 9.18945H170.742L171.67 4.84375H170.352L168.193 15ZM186.533 10.625C186.729 9.99023 187.705 6.51367 187.871 5.92773H191.904L189.971 15H191.279L193.438 4.84375H186.934C186.777 5.44922 185.537 9.84375 185.312 10.5762C184.697 12.7051 184.014 13.8867 183.027 13.8867C182.812 13.8867 182.627 13.8379 182.539 13.8086L182.285 14.9902C182.393 15.0293 182.637 15.0879 182.9 15.0879C184.746 15.0879 185.625 13.7012 186.533 10.625ZM198.418 14.0234C196.65 14.0234 195.518 12.7246 195.518 10.7324C195.518 7.93945 197.178 5.82031 199.424 5.82031C201.182 5.82031 202.314 7.11914 202.314 9.11133C202.314 11.9043 200.654 14.0234 198.418 14.0234ZM199.424 4.67773C196.455 4.67773 194.209 7.32422 194.209 10.7715C194.209 13.4277 195.859 15.166 198.418 15.166C201.377 15.166 203.623 12.5195 203.623 9.07227C203.623 6.41602 201.982 4.67773 199.424 4.67773ZM212.646 5.92773L212.871 4.84375H206.523L204.365 15H205.674L207.607 5.92773H212.646ZM213.789 15L221.143 6.88477H221.221L219.492 15H220.791L222.949 4.84375H221.641L214.287 12.9492H214.209L215.938 4.84375H214.629L212.471 15H213.789ZM223.096 15H224.404L225.41 10.2734H230.918L229.912 15H231.221L233.379 4.84375H232.07L231.143 9.18945H225.645L226.572 4.84375H225.254L223.096 15ZM239.531 15L246.885 6.88477H246.963L245.234 15H246.533L248.691 4.84375H247.383L240.029 12.9492H239.951L241.68 4.84375H240.371L238.213 15H239.531ZM248.193 17.9785L256.875 0.908203H255.742L247.061 17.9785H248.193ZM256.348 15L263.701 6.88477H263.779L262.051 15H263.35L265.508 4.84375H264.199L256.846 12.9492H256.768L258.496 4.84375H257.188L255.029 15H256.348ZM268.877 10.625C269.072 9.99023 270.049 6.51367 270.215 5.92773H274.248L272.314 15H273.623L275.781 4.84375H269.277C269.121 5.44922 267.881 9.84375 267.656 10.5762C267.041 12.7051 266.357 13.8867 265.371 13.8867C265.156 13.8867 264.971 13.8379 264.883 13.8086L264.629 14.9902C264.736 15.0293 264.98 15.0879 265.244 15.0879C267.09 15.0879 267.969 13.7012 268.877 10.625ZM277.285 15L284.639 6.88477H284.717L282.988 15H284.287L286.445 4.84375H285.137L277.783 12.9492H277.705L279.434 4.84375H278.125L275.967 15H277.285ZM298.008 15H299.316L301.475 4.84375H293.438L291.279 15H292.588L294.521 5.92773H299.941L298.008 15ZM305.283 14.0527C303.984 14.0527 303.096 13.3594 303.096 12.2852C303.096 11.0742 304.131 10.332 305.947 10.2344L308.975 10.0684L308.672 11.4453C308.33 12.9785 306.914 14.0527 305.283 14.0527ZM304.961 15.166C306.328 15.166 307.549 14.5215 308.262 13.5059H308.291L307.969 15H309.219L310.625 8.37891C310.674 8.11523 310.703 7.8125 310.703 7.50977C310.703 5.83008 309.326 4.67773 307.217 4.67773C304.932 4.67773 303.301 5.9375 302.979 7.76367H304.326C304.58 6.5918 305.576 5.82031 307.119 5.82031C308.574 5.82031 309.404 6.5332 309.404 7.68555C309.404 7.88086 309.395 8.08594 309.346 8.30078L309.189 9.02344L305.957 9.19922C303.32 9.3457 301.787 10.4688 301.787 12.4219C301.787 14.0332 303.174 15.166 304.961 15.166ZM316.621 14.0137C314.883 14.0137 313.75 12.7344 313.75 10.8887C313.75 8.18359 315.361 5.82031 317.686 5.82031C319.414 5.82031 320.449 7.06055 320.449 9.12109C320.449 11.9238 318.779 14.0137 316.621 14.0137ZM311.973 18.3691L313.193 12.5879H313.242C313.555 14.082 314.922 15.166 316.641 15.166C319.521 15.166 321.719 12.5391 321.719 9.04297C321.719 6.39648 320.273 4.67773 317.979 4.67773C316.533 4.67773 315.176 5.51758 314.473 6.76758H314.434L314.844 4.84375H313.574L310.693 18.3691H311.973ZM327.246 14.0234C325.479 14.0234 324.346 12.7246 324.346 10.7324C324.346 7.93945 326.006 5.82031 328.252 5.82031C330.01 5.82031 331.143 7.11914 331.143 9.11133C331.143 11.9043 329.482 14.0234 327.246 14.0234ZM328.252 4.67773C325.283 4.67773 323.037 7.32422 323.037 10.7715C323.037 13.4277 324.688 15.166 327.246 15.166C330.205 15.166 332.451 12.5195 332.451 9.07227C332.451 6.41602 330.811 4.67773 328.252 4.67773ZM336.221 10.625C336.416 9.99023 337.393 6.51367 337.559 5.92773H341.592L339.658 15H340.967L343.125 4.84375H336.621C336.465 5.44922 335.225 9.84375 335 10.5762C334.385 12.7051 333.701 13.8867 332.715 13.8867C332.5 13.8867 332.314 13.8379 332.227 13.8086L331.973 14.9902C332.08 15.0293 332.324 15.0879 332.588 15.0879C334.434 15.0879 335.312 13.7012 336.221 10.625ZM347.92 9.35547C349.229 9.35547 349.961 10.0098 349.961 11.123C349.961 12.6074 348.809 13.916 346.934 13.916H344.844L345.82 9.35547H347.92ZM343.311 15H346.719C349.502 15 351.27 13.2617 351.27 10.9668C351.27 9.375 350.127 8.28125 348.154 8.28125H346.045L346.777 4.84375H345.469L343.311 15Z" fill="#FF0000"/>
</svg>
