<svg width="230" height="30" viewBox="0 0 230 30" fill="none" xmlns="http://www.w3.org/2000/svg">
<path d="M12.2344 24C17.1875 24 20.7188 21 20.7188 16.8125C20.7188 14.5 19.0156 12.7656 16.6094 12.25L16.625 12.1406C19.6562 11.5312 21.8438 9.28125 21.8438 6.29688C21.8438 3.53125 19.5312 1.45312 15.25 1.45312H5.39062L0.59375 24H12.2344ZM10.2031 5.17188H13.2344C15.125 5.17188 16.1094 6.01562 16.1094 7.34375C16.1094 9.10938 14.5938 10.3906 12.3438 10.3906H9.09375L10.2031 5.17188ZM7.07812 19.9375L8.3125 14.0938H11.7656C13.875 14.0938 14.9688 15.0156 14.9688 16.5469C14.9688 18.5781 13.3906 19.9375 10.9219 19.9375H7.07812ZM31.5625 19.9688C29.8438 19.9688 28.7344 18.6406 28.7344 16.6875C28.7344 13.5938 30.5625 10.875 32.9062 10.875C34.6094 10.875 35.6719 12.1875 35.6719 14.2188C35.6719 17.4531 33.8594 19.9688 31.5625 19.9688ZM25.8594 29.5L27.7031 20.875H27.8125C28.4844 23 30.2969 24.25 32.75 24.25C37.6094 24.25 41.2031 19.6406 41.2031 13.375C41.2031 9.28125 38.9844 6.73438 35.4219 6.73438C33.2656 6.73438 31.375 7.65625 30.1094 9.4375H30L30.5312 6.98438H25.2969L20.5 29.5H25.8594ZM48.4531 13.5781C48.9219 11.7344 50.3594 10.4219 52.1875 10.4219C53.9688 10.4219 55.0156 11.6094 55.0156 13.0938C55.0156 13.2656 55 13.4844 54.9688 13.5781H48.4531ZM50.8438 24.3906C55.1875 24.3906 58.3594 22 59.2344 18.5156H54.2188C53.8125 19.7031 52.6562 20.5 51.0938 20.5C49.1094 20.5 47.9062 19.1094 47.9062 17.1875C47.9062 17.0156 47.9219 16.8438 47.9531 16.6719H59.6875C59.875 15.8438 59.9531 14.7656 59.9531 13.8906C59.9531 9.45312 56.9062 6.57812 52.4062 6.57812C46.8125 6.57812 43.0469 10.9062 43.0469 16.6719C43.0469 21.4531 46.0312 24.3906 50.8438 24.3906ZM65.5469 24L67.875 13.0469H68.1094L69.8438 22.8594H73.4531L79.375 13.0469H79.625L77.2969 24H82.2969L85.9219 6.98438H78.8594L72.9844 17.0625H72.7188L71.2188 6.98438H64.1719L60.5469 24H65.5469ZM94.7031 15.1094C93.4844 15.1094 92.7031 14.4219 92.7031 13.3438C92.7031 11.9375 93.8906 10.9375 95.5781 10.9375H97.9219L97.0312 15.1094H94.7031ZM95.1406 24H100.516L104.141 6.98438H95.375C90.625 6.98438 87.2812 9.67188 87.2812 13.4844C87.2812 15.375 88.2344 16.9375 89.8906 17.7969L84.2031 24H90.4844L95.1094 18.7188H96.2656L95.1406 24ZM120.094 19.9688C118.375 19.9688 117.266 18.6406 117.266 16.6875C117.266 13.5938 119.094 10.875 121.438 10.875C123.141 10.875 124.203 12.1875 124.203 14.2188C124.203 17.4531 122.391 19.9688 120.094 19.9688ZM114.391 29.5L116.234 20.875H116.344C117.016 23 118.828 24.25 121.281 24.25C126.141 24.25 129.734 19.6406 129.734 13.375C129.734 9.28125 127.516 6.73438 123.953 6.73438C121.797 6.73438 119.906 7.65625 118.641 9.4375H118.531L119.062 6.98438H113.828L109.031 29.5H114.391ZM138.062 20.5156C136.75 20.5156 135.844 19.8594 135.844 18.8594C135.844 17.7188 136.906 16.9688 138.547 16.9062L141.641 16.8125L141.359 18.0781C141.062 19.4844 139.656 20.5156 138.062 20.5156ZM135.688 24.25C137.812 24.25 139.578 23.3438 140.484 21.9844H140.594L140.156 24H145.359L147.688 13.0938C147.75 12.7344 147.812 12.1562 147.812 11.7031C147.812 8.65625 144.906 6.57812 140.578 6.57812C136.328 6.57812 133.219 8.76562 132.578 12.2031H137.516C137.828 11.1562 138.797 10.5469 140.203 10.5469C141.641 10.5469 142.562 11.1875 142.562 12.1719C142.562 12.3281 142.547 12.4688 142.5 12.7344L142.297 13.7344L138.266 13.8594C133.547 14 130.656 16.1406 130.656 19.625C130.656 22.2969 132.844 24.25 135.688 24.25ZM160.656 7.5C158.234 7.5 156.422 8.45312 155 10.5156H154.766C155.734 7.23438 157.828 5.59375 161.297 5.375C161.375 5.375 163.734 5.23438 163.75 5.21875C166.141 5.07812 167.219 4.9375 167.953 4.65625L168.969 0.4375C168.266 0.671875 167.109 0.84375 164.312 1.03125C164.297 1.03125 161.984 1.1875 161.922 1.1875C156.234 1.59375 152.547 4.28125 150.703 9.34375C150.031 11.1562 149.656 13.1875 149.594 15.4219C149.453 20.9375 152.469 24.3594 157.453 24.3594C163.156 24.3594 166.781 20.5469 166.938 14.4688C167.062 10.1562 164.688 7.5 160.656 7.5ZM157.734 20.2188C155.953 20.2188 154.844 18.75 154.891 16.5938C154.969 13.5625 156.641 11.375 158.922 11.375C160.672 11.375 161.719 12.7969 161.672 15.0625C161.594 17.9062 159.844 20.2188 157.734 20.2188ZM177.188 20.2188C175.516 20.2188 174.438 18.7812 174.438 16.625C174.438 13.2656 176.188 10.7656 178.594 10.7656C180.25 10.7656 181.328 12.2031 181.328 14.3594C181.328 17.6719 179.547 20.2188 177.188 20.2188ZM178.828 6.57812C173.109 6.57812 168.984 10.8594 168.984 16.7344C168.984 21.3281 172.188 24.4062 176.969 24.4062C182.688 24.4062 186.812 20.125 186.812 14.25C186.812 9.67188 183.609 6.57812 178.828 6.57812ZM204.969 6.98438H189.859L189 10.9688H193.875L191.094 24H196.484L199.266 10.9688H204.125L204.969 6.98438ZM220.406 24H225.797L229.422 6.98438H224.031L220.406 24ZM212.625 15.6094C213.875 15.6094 214.625 16.2969 214.625 17.3594C214.625 18.8125 213.375 20 211.688 20H209.406L210.344 15.6094H212.625ZM203.172 24H211.875C216.609 24 220.047 20.8281 220.047 16.7812C220.047 13.7344 217.656 11.6875 214 11.6875H211.172L212.172 6.98438H206.797L203.172 24Z" fill="black"/>
</svg>
