<svg width="271" height="30" viewBox="0 0 271 30" fill="none" xmlns="http://www.w3.org/2000/svg">
<path d="M6.1875 13.3281H9.20312C12.375 13.3281 14.3438 14.9219 14.3438 17.5938C14.3438 20.3906 11.8281 22.4844 8.28125 22.4844C4.71875 22.4844 2.48438 20.4688 2.5 17.9844H0.4375C0.25 21.4219 3.28125 24.3594 8.10938 24.3594C13.0312 24.3594 16.5312 21.3906 16.5312 17.4219C16.5312 14.8125 14.9062 13 12.3281 12.4531L12.3438 12.3906C15.5156 12 17.8125 9.60938 17.8125 6.73438C17.8125 3.39062 15.0156 1.09375 11.0625 1.09375C7.0625 1.09375 3.95312 3.45312 3.29688 7H5.375C5.9375 4.60938 8.14062 2.9375 10.875 2.9375C13.7188 2.9375 15.6562 4.51562 15.6562 6.95312C15.6562 9.5625 13.2188 11.3906 9.82812 11.3906H6.59375L6.1875 13.3281ZM24.2188 22.4844C22.1406 22.4844 20.7188 21.375 20.7188 19.6562C20.7188 17.7188 22.375 16.5312 25.2812 16.375L30.125 16.1094L29.6406 18.3125C29.0938 20.7656 26.8281 22.4844 24.2188 22.4844ZM23.7031 24.2656C25.8906 24.2656 27.8438 23.2344 28.9844 21.6094H29.0312L28.5156 24H30.5156L32.7656 13.4062C32.8438 12.9844 32.8906 12.5 32.8906 12.0156C32.8906 9.32812 30.6875 7.48438 27.3125 7.48438C23.6562 7.48438 21.0469 9.5 20.5312 12.4219H22.6875C23.0938 10.5469 24.6875 9.3125 27.1562 9.3125C29.4844 9.3125 30.8125 10.4531 30.8125 12.2969C30.8125 12.6094 30.7969 12.9375 30.7188 13.2812L30.4688 14.4375L25.2969 14.7188C21.0781 14.9531 18.625 16.75 18.625 19.875C18.625 22.4531 20.8438 24.2656 23.7031 24.2656ZM42.3594 22.4219C39.5781 22.4219 37.7656 20.375 37.7656 17.4219C37.7656 13.0938 40.3438 9.3125 44.0625 9.3125C46.8281 9.3125 48.4844 11.2969 48.4844 14.5938C48.4844 19.0781 45.8125 22.4219 42.3594 22.4219ZM34.9219 29.3906L36.875 20.1406H36.9531C37.4531 22.5312 39.6406 24.2656 42.3906 24.2656C47 24.2656 50.5156 20.0625 50.5156 14.4688C50.5156 10.2344 48.2031 7.48438 44.5312 7.48438C42.2188 7.48438 40.0469 8.82812 38.9219 10.8281H38.8594L39.5156 7.75H37.4844L32.875 29.3906H34.9219ZM55.0312 14.6406C55.7031 11.5781 57.8281 9.29688 60.7188 9.29688C63.625 9.29688 65.0156 11.3594 65.0156 13.875C65.0156 14.1875 65.0156 14.3906 64.9688 14.6406H55.0312ZM59.1562 24.2969C62.6094 24.2969 65.375 22.1562 66.2656 19.1562H64.2188C63.4219 21.1875 61.6406 22.4531 59.2031 22.4531C56.4531 22.4531 54.7031 20.4688 54.7031 17.25C54.7031 17 54.7188 16.6719 54.7656 16.3125H66.9375C67.0625 15.6562 67.1094 14.8281 67.1094 14.1406C67.1094 10.0312 64.6719 7.48438 60.75 7.48438C56.0156 7.48438 52.5938 11.8281 52.5938 17.3281C52.5938 21.4062 54.9219 24.2969 59.1562 24.2969ZM81.4688 9.48438L81.8281 7.75H71.6719L68.2188 24H70.3125L73.4062 9.48438H81.4688ZM83.2969 24L95.0625 11.0156H95.1875L92.4219 24H94.5L97.9531 7.75H95.8594L84.0938 20.7188H83.9688L86.7344 7.75H84.6406L81.1875 24H83.2969ZM107.422 7.48438C102.609 7.48438 99.125 11.75 99.125 17.2656C99.125 21.375 101.516 24.2656 105.734 24.2656C109.031 24.2656 111.781 22.1406 112.672 19.1562H110.625C109.844 21.1406 108.047 22.4375 105.75 22.4375C103.047 22.4375 101.25 20.4062 101.25 17.1875C101.25 12.6406 103.844 9.3125 107.406 9.3125C109.969 9.3125 111.578 10.9375 111.734 13.0469H113.75C113.75 12.9844 113.75 13.0156 113.75 12.9688C113.641 10.0156 111.406 7.48438 107.422 7.48438ZM128.844 7.75H115.875L115.5 9.48438H120.953L117.859 24H119.953L123.047 9.48438H128.484L128.844 7.75ZM135.953 22.4219C133.172 22.4219 131.359 20.375 131.359 17.4219C131.359 13.0938 133.938 9.3125 137.656 9.3125C140.422 9.3125 142.078 11.2969 142.078 14.5938C142.078 19.0781 139.406 22.4219 135.953 22.4219ZM128.516 29.3906L130.469 20.1406H130.547C131.047 22.5312 133.234 24.2656 135.984 24.2656C140.594 24.2656 144.109 20.0625 144.109 14.4688C144.109 10.2344 141.797 7.48438 138.125 7.48438C135.812 7.48438 133.641 8.82812 132.516 10.8281H132.453L133.109 7.75H131.078L126.469 29.3906H128.516ZM147.391 24L159.156 11.0156H159.281L156.516 24H158.594L162.047 7.75H159.953L148.188 20.7188H148.062L150.828 7.75H148.734L145.281 24H147.391ZM170.609 22.4219C167.828 22.4219 166.016 20.375 166.016 17.4219C166.016 13.0938 168.594 9.3125 172.312 9.3125C175.078 9.3125 176.734 11.2969 176.734 14.5938C176.734 19.0781 174.062 22.4219 170.609 22.4219ZM163.172 29.3906L165.125 20.1406H165.203C165.703 22.5312 167.891 24.2656 170.641 24.2656C175.25 24.2656 178.766 20.0625 178.766 14.4688C178.766 10.2344 176.453 7.48438 172.781 7.48438C170.469 7.48438 168.297 8.82812 167.172 10.8281H167.109L167.766 7.75H165.734L161.125 29.3906H163.172ZM180.453 29.7656C182.531 29.7656 184.016 28.9688 185.781 25.875L196.141 7.75H193.844L186.125 21.75H186.062L183.906 7.75H181.844L184.547 24.0312L183.906 25.2188C182.797 27.3281 181.688 28.0156 180.5 28.0156C180.031 28.0156 179.578 27.9219 179.25 27.8125L178.938 29.5625C179.297 29.6719 179.891 29.7656 180.453 29.7656ZM196.922 24L208.688 11.0156H208.812L206.047 24H208.125L211.578 7.75H209.484L197.719 20.7188H197.594L200.359 7.75H198.266L194.812 24H196.922ZM201.547 0.359375C200.969 3.0625 202.656 5.01562 205.547 5.01562C208.828 5.01562 210.781 3.0625 211.359 0.359375H209.484C209.109 2.125 207.719 3.5625 205.734 3.5625C203.844 3.5625 203 2.14062 203.375 0.359375H201.547ZM226.75 7.75H213.781L213.406 9.48438H218.859L215.766 24H217.859L220.953 9.48438H226.391L226.75 7.75ZM228.375 14.6406C229.047 11.5781 231.172 9.29688 234.062 9.29688C236.969 9.29688 238.359 11.3594 238.359 13.875C238.359 14.1875 238.359 14.3906 238.312 14.6406H228.375ZM232.5 24.2969C235.953 24.2969 238.719 22.1562 239.609 19.1562H237.562C236.766 21.1875 234.984 22.4531 232.547 22.4531C229.797 22.4531 228.047 20.4688 228.047 17.25C228.047 17 228.062 16.6719 228.109 16.3125H240.281C240.406 15.6562 240.453 14.8281 240.453 14.1406C240.453 10.0312 238.016 7.48438 234.094 7.48438C229.359 7.48438 225.938 11.8281 225.938 17.3281C225.938 21.4062 228.266 24.2969 232.5 24.2969ZM250.797 7.48438C245.984 7.48438 242.5 11.75 242.5 17.2656C242.5 21.375 244.891 24.2656 249.109 24.2656C252.406 24.2656 255.156 22.1406 256.047 19.1562H254C253.219 21.1406 251.422 22.4375 249.125 22.4375C246.422 22.4375 244.625 20.4062 244.625 17.1875C244.625 12.6406 247.219 9.3125 250.781 9.3125C253.344 9.3125 254.953 10.9375 255.109 13.0469H257.125C257.125 12.9844 257.125 13.0156 257.125 12.9688C257.016 10.0156 254.781 7.48438 250.797 7.48438ZM265.062 14.9688C267.156 14.9688 268.328 16.0156 268.328 17.7969C268.328 20.1719 266.484 22.2656 263.484 22.2656H260.141L261.703 14.9688H265.062ZM257.688 24H263.141C267.594 24 270.422 21.2188 270.422 17.5469C270.422 15 268.594 13.25 265.438 13.25H262.062L263.234 7.75H261.141L257.688 24Z" fill="url(#paint0_linear_8_5)"/>
<path d="M-0.921875 29.7656H270.906V31.25H-0.921875V29.7656Z" fill="url(#paint1_linear_8_5)"/>
<defs>
<linearGradient id="paint0_linear_8_5" x1="117.088" y1="-6.00001" x2="126.157" y2="48.3654" gradientUnits="userSpaceOnUse">
<stop stop-color="#4A89D3"/>
<stop offset="1" stop-color="#121B74"/>
</linearGradient>
<linearGradient id="paint1_linear_8_5" x1="117.088" y1="-6.00001" x2="126.157" y2="48.3654" gradientUnits="userSpaceOnUse">
<stop stop-color="#4A89D3"/>
<stop offset="1" stop-color="#121B74"/>
</linearGradient>
</defs>
</svg>
