<svg width="173" height="40" viewBox="0 0 173 40" fill="none" xmlns="http://www.w3.org/2000/svg">
<path d="M36.2051 0.998047H25.8926L14.1191 13.502H13.9043L16.5684 0.998047H7.45898L0.863281 32H9.97266L12.4648 20.334H12.7441L19.6406 32H29.7598L20.9082 17.1758L36.2051 0.998047ZM42.8652 26.5859C41.2754 26.5859 40.1797 25.8125 40.1797 24.6523C40.1797 23.2988 41.4688 22.375 43.4023 22.332L47.0762 22.2461L46.7539 23.7715C46.4102 25.3828 44.7344 26.5859 42.8652 26.5859ZM38.8906 32.3438C41.877 32.3438 44.3047 31.0762 45.4648 29.207H45.6367L45.0352 32H53.3066L56.5293 16.832C56.6367 16.3594 56.7227 15.5215 56.7227 14.9199C56.7227 10.6016 52.4473 7.67969 46.1523 7.67969C40.0938 7.67969 35.625 10.709 34.6797 15.6719H42.3496C42.7793 14.4258 43.9609 13.7812 45.5508 13.7812C47.2695 13.7812 48.4297 14.5117 48.4297 15.6074C48.4297 15.7578 48.4082 15.9082 48.3438 16.2734L48.0645 17.6484L42.8867 17.7559C36.1406 17.9062 31.9941 21 31.9941 25.9199C31.9941 29.6152 34.959 32.3438 38.8906 32.3438ZM64.6289 32L67.7871 17.1328H68.1523L70.0645 30.1523H75.7363L83.1699 17.1328H83.5566L80.3984 32H88.2188L93.2676 8.28125H81.9883L75.0273 21.1074H74.5977L73.1582 8.28125H61.8574L56.8086 32H64.6289ZM102.312 17.3477C102.871 15.0918 104.74 13.5664 106.953 13.5664C108.994 13.5664 110.412 14.8555 110.412 16.6602C110.412 16.8965 110.391 17.2402 110.348 17.3477H102.312ZM105.105 32.5801C111.422 32.5801 115.934 29.25 117.158 24.2656H109.252C108.844 25.6406 107.404 26.5859 105.535 26.5859C102.979 26.5859 101.475 24.8672 101.475 22.6758C101.475 22.4609 101.496 22.2246 101.539 21.9883H117.695C117.996 20.7852 118.125 19.1953 118.125 17.9062C118.125 11.7188 113.699 7.67969 107.34 7.67969C99.2617 7.67969 93.8906 13.6094 93.8906 21.7305C93.8906 28.5625 98.3164 32.5801 105.105 32.5801ZM132.82 25.6406C130.822 25.6406 129.512 24.0723 129.512 21.666C129.512 17.7773 131.896 14.3828 134.604 14.3828C136.602 14.3828 137.912 15.9727 137.912 18.3574C137.912 22.3965 135.635 25.6406 132.82 25.6406ZM125.58 39.584L128.115 27.7676H128.266C129.211 30.7109 131.596 32.3438 134.947 32.3438C141.736 32.3438 146.721 25.791 146.721 16.918C146.721 11.3535 143.713 7.9375 138.857 7.9375C135.893 7.9375 133.336 9.09766 131.488 11.5898H131.316L132.025 8.28125H123.732L117.072 39.584H125.58ZM158.623 26.5859C157.033 26.5859 155.938 25.8125 155.938 24.6523C155.938 23.2988 157.227 22.375 159.16 22.332L162.834 22.2461L162.512 23.7715C162.168 25.3828 160.492 26.5859 158.623 26.5859ZM154.648 32.3438C157.635 32.3438 160.062 31.0762 161.223 29.207H161.395L160.793 32H169.064L172.287 16.832C172.395 16.3594 172.48 15.5215 172.48 14.9199C172.48 10.6016 168.205 7.67969 161.91 7.67969C155.852 7.67969 151.383 10.709 150.438 15.6719H158.107C158.537 14.4258 159.719 13.7812 161.309 13.7812C163.027 13.7812 164.188 14.5117 164.188 15.6074C164.188 15.7578 164.166 15.9082 164.102 16.2734L163.822 17.6484L158.645 17.7559C151.898 17.9062 147.752 21 147.752 25.9199C147.752 29.6152 150.717 32.3438 154.648 32.3438Z" fill="black"/>
</svg>
