<svg width="290" height="96" viewBox="0 0 290 96" fill="none" xmlns="http://www.w3.org/2000/svg">
<path d="M32.3716 38L39.5669 4.17969H29.395L26.6294 17.0938H15.1919L17.9575 4.17969H7.78563L0.590317 38H10.7622L13.5747 24.8281H25.0122L22.1997 38H32.3716ZM49.7959 22.0156C50.4053 19.5547 52.4444 17.8906 54.8584 17.8906C57.085 17.8906 58.6319 19.2969 58.6319 21.2656C58.6319 21.5234 58.6084 21.8984 58.5616 22.0156H49.7959ZM52.8428 38.6328C59.7334 38.6328 64.6553 35 65.9913 29.5625H57.3663C56.9209 31.0625 55.3506 32.0938 53.3116 32.0938C50.5225 32.0938 48.8819 30.2188 48.8819 27.8281C48.8819 27.5938 48.9053 27.3359 48.9522 27.0781H66.5772C66.9053 25.7656 67.0459 24.0312 67.0459 22.625C67.0459 15.875 62.2178 11.4688 55.2803 11.4688C46.4678 11.4688 40.6084 17.9375 40.6084 26.7969C40.6084 34.25 45.4366 38.6328 52.8428 38.6328ZM78.1656 38L89.1578 24.3594H89.6031L86.6969 38H95.7672L101.275 12.125H92.2047L81.2594 25.3906H80.8141L83.65 12.125H74.6031L69.0953 38H78.1656ZM81.6344 0.40625C80.8141 5.35156 83.6969 8.5625 88.8531 8.5625C94.525 8.5625 98.7203 5.35156 99.5406 0.40625H94.1734C93.5875 2.72656 91.9 4.17969 89.7906 4.17969C87.6813 4.17969 86.6031 2.72656 87.0016 0.40625H81.6344ZM116.707 31.0625C114.528 31.0625 113.098 29.3516 113.098 26.7266C113.098 22.4844 115.699 18.7812 118.653 18.7812C120.832 18.7812 122.262 20.5156 122.262 23.1172C122.262 27.5234 119.778 31.0625 116.707 31.0625ZM108.809 46.2734L111.574 33.3828H111.738C112.77 36.5938 115.371 38.375 119.028 38.375C126.434 38.375 131.871 31.2266 131.871 21.5469C131.871 15.4766 128.59 11.75 123.293 11.75C120.059 11.75 117.27 13.0156 115.254 15.7344H115.067L115.84 12.125H106.793L99.5275 46.2734H108.809ZM148.803 31.5547C146.694 31.5547 145.288 29.6094 145.288 26.7266C145.288 22.0391 147.655 18.5703 150.866 18.5703C152.975 18.5703 154.358 20.4922 154.358 23.3984C154.358 27.9922 151.944 31.5547 148.803 31.5547ZM151.335 11.4688C142.288 11.4688 135.866 17.8906 135.866 26.9141C135.866 33.9219 140.928 38.6562 148.382 38.6562C157.428 38.6562 163.85 32.2344 163.85 23.2109C163.85 16.2031 158.788 11.4688 151.335 11.4688ZM165.947 38H175.228L177.29 28.25H185.142L183.079 38H192.361L197.868 12.125H188.587L186.595 21.5H178.743L180.736 12.125H171.454L165.947 38ZM197.902 38H207.183L209.246 28.25H217.098L215.035 38H224.316L229.824 12.125H220.543L218.551 21.5H210.699L212.691 12.125H203.41L197.902 38ZM242.35 32.0938C240.616 32.0938 239.42 31.25 239.42 29.9844C239.42 28.5078 240.827 27.5 242.936 27.4531L246.944 27.3594L246.592 29.0234C246.217 30.7812 244.389 32.0938 242.35 32.0938ZM238.014 38.375C241.272 38.375 243.92 36.9922 245.186 34.9531H245.373L244.717 38H253.741L257.256 21.4531C257.373 20.9375 257.467 20.0234 257.467 19.3672C257.467 14.6562 252.803 11.4688 245.936 11.4688C239.327 11.4688 234.452 14.7734 233.42 20.1875H241.788C242.256 18.8281 243.545 18.125 245.28 18.125C247.155 18.125 248.42 18.9219 248.42 20.1172C248.42 20.2812 248.397 20.4453 248.327 20.8438L248.022 22.3438L242.373 22.4609C235.014 22.625 230.491 26 230.491 31.3672C230.491 35.3984 233.725 38.375 238.014 38.375ZM274.142 24.2656C272.524 24.2656 271.54 23.3984 271.54 22.0156C271.54 20.1875 273.134 18.8516 275.337 18.8516H278.501L277.352 24.2656H274.142ZM274.423 38H283.704L289.212 12.125H274.751C267.438 12.125 262.212 16.3438 262.212 22.2266C262.212 25.0391 263.548 27.3359 266.032 28.7422L257.595 38H268.329L274.938 30.2891H276.063L274.423 38ZM108.785 68.4688C99.715 68.4688 94.1134 74.6094 94.1134 84.5469C94.1134 91.2969 98.8478 95.6562 106.207 95.6562C113.356 95.6562 118.676 91.2266 119.449 84.6641H110.59C110.098 86.9375 108.645 88.2734 106.629 88.2734C104.66 88.2734 103.371 86.6328 103.371 84.1484C103.371 79.2266 105.387 75.8516 108.317 75.8516C110.309 75.8516 111.551 77.2109 111.551 79.3672H120.41C120.434 79.2266 120.434 79.1094 120.434 78.1016C120.434 72.5703 115.488 68.4688 108.785 68.4688ZM133.147 79.0156C133.757 76.5547 135.796 74.8906 138.21 74.8906C140.436 74.8906 141.983 76.2969 141.983 78.2656C141.983 78.5234 141.96 78.8984 141.913 79.0156H133.147ZM136.194 95.6328C143.085 95.6328 148.007 92 149.342 86.5625H140.717C140.272 88.0625 138.702 89.0938 136.663 89.0938C133.874 89.0938 132.233 87.2188 132.233 84.8281C132.233 84.5938 132.257 84.3359 132.303 84.0781H149.928C150.257 82.7656 150.397 81.0312 150.397 79.625C150.397 72.875 145.569 68.4688 138.632 68.4688C129.819 68.4688 123.96 74.9375 123.96 83.7969C123.96 91.25 128.788 95.6328 136.194 95.6328ZM180.197 69.125H156.548L155.095 75.8984H162.267L158.212 95H167.517L171.572 75.8984H178.743L180.197 69.125ZM193.824 82.625C195.465 82.625 196.426 83.5156 196.426 84.8984C196.426 86.7266 194.738 88.2031 192.629 88.2031H189.512L190.707 82.625H193.824ZM178.777 95H193.238C200.433 95 205.801 90.0547 205.801 83.9141C205.801 79.1094 202.004 75.9453 196.308 75.9453H192.113L193.566 69.125H184.285L178.777 95Z" fill="white"/>
</svg>
