<svg width="246" height="23" viewBox="0 0 246 23" fill="none" xmlns="http://www.w3.org/2000/svg">
<path d="M1.4375 18.1055C3.46484 18.1055 4.57812 17.0859 6.80469 13.6758L15.0195 1.08984H13.9531L6.34766 12.8555H6.26562L3.32422 1.08984H2.36328L5.60938 13.9219C3.86328 16.5 2.97266 17.2383 1.58984 17.2383C1.25 17.2383 0.957031 17.1914 0.804688 17.1328L0.628906 17.9883C0.792969 18.0469 1.08594 18.1055 1.4375 18.1055ZM18.6172 18H23.2461C26.3047 18 28.2969 16.2891 28.2969 14.0625C28.2969 12.6328 27.2422 11.8477 25.8945 11.7188L25.9062 11.6367C27.5352 11.3203 28.8477 10.1484 28.8477 8.39062C28.8477 6.87891 27.6641 5.8125 25.6016 5.8125H21.207L18.6172 18ZM24.2773 12.1172C26.3047 12.1172 27.3828 12.7734 27.3828 14.1094C27.3828 15.7969 25.8242 17.2148 23.3867 17.2148H19.6836L20.7852 12.1172H24.2773ZM25.4375 6.60938C27.0195 6.60938 27.8984 7.27734 27.8984 8.53125C27.8984 10.1016 26.4336 11.332 24.3828 11.332H20.9375L21.9453 6.60938H25.4375ZM33.875 17.3906C32.0586 17.3906 30.8164 16.3945 30.8164 14.9297C30.8164 13.1602 32.3164 12.0938 34.9531 11.9531L38.9844 11.7188L38.5391 13.7578C38.082 15.8555 36.1133 17.3906 33.875 17.3906ZM33.6992 18.1875C35.5273 18.1875 37.2266 17.25 38.0938 15.8086H38.1406L37.6719 18H38.5625L40.2617 9.97266C40.3438 9.60938 40.3789 9.24609 40.3789 8.92969C40.3789 6.9375 38.7852 5.61328 36.3594 5.61328C33.7344 5.61328 31.8008 7.06641 31.3789 9.25781H32.3164C32.6914 7.52344 34.1797 6.44531 36.2891 6.44531C38.2812 6.44531 39.4648 7.41797 39.4648 9.02344C39.4648 9.30469 39.4297 9.60938 39.3594 9.9375L39.1367 10.957L34.9531 11.1914C31.7422 11.3672 29.9023 12.7266 29.9023 15C29.9023 16.875 31.4961 18.1875 33.6992 18.1875ZM48.0664 5.61328C44.5156 5.61328 41.8789 8.83594 41.8789 13.0312C41.8789 16.0898 43.7422 18.1992 46.7305 18.1992C49.0977 18.1992 51.0195 16.8164 51.793 14.6719H50.8789C50.1992 16.3125 48.6406 17.3672 46.7422 17.3672C44.3867 17.3672 42.793 15.6445 42.793 13.0078C42.793 9.28125 45.0781 6.44531 48.0547 6.44531C50.1289 6.44531 51.5703 7.74609 51.7812 9.59766H52.6719C52.6719 9.58594 52.6719 9.58594 52.6719 9.57422C52.4727 7.30078 50.7148 5.61328 48.0664 5.61328ZM60.3008 11.2617C60.8047 8.44922 62.8203 6.43359 65.3633 6.43359C67.707 6.43359 69.043 8.05078 69.043 10.3711C69.043 10.7812 69.0312 10.9922 68.9727 11.2617H60.3008ZM63.9453 18.1992C66.5117 18.1992 68.5039 16.7578 69.2305 14.5195H68.3047C67.6367 16.3125 66.0781 17.3789 63.9922 17.3789C61.5898 17.3789 60.0781 15.7383 60.0781 13.1016C60.0781 12.8438 60.1133 12.4805 60.1719 12.0352H69.7812C69.8867 11.5898 69.957 10.9688 69.957 10.4297C69.957 7.46484 68.1992 5.61328 65.3867 5.61328C61.8008 5.61328 59.1641 8.88281 59.1641 13.1719C59.1641 16.1836 60.957 18.1992 63.9453 18.1992ZM86.8555 21.2227L87.7109 17.2031H85.6953L88.1211 5.8125H87.207L84.7812 17.2031H78.7344L81.1602 5.8125H80.2461L77.8203 17.2031H71.7734L74.2109 5.8125H73.2852L70.6953 18H86.6797L85.9883 21.2227H86.8555ZM91.1445 11.2617C91.6484 8.44922 93.6641 6.43359 96.207 6.43359C98.5508 6.43359 99.8867 8.05078 99.8867 10.3711C99.8867 10.7812 99.875 10.9922 99.8164 11.2617H91.1445ZM94.7891 18.1992C97.3555 18.1992 99.3477 16.7578 100.074 14.5195H99.1484C98.4805 16.3125 96.9219 17.3789 94.8359 17.3789C92.4336 17.3789 90.9219 15.7383 90.9219 13.1016C90.9219 12.8438 90.957 12.4805 91.0156 12.0352H100.625C100.73 11.5898 100.801 10.9688 100.801 10.4297C100.801 7.46484 99.043 5.61328 96.2305 5.61328C92.6445 5.61328 90.0078 8.88281 90.0078 13.1719C90.0078 16.1836 91.8008 18.1992 94.7891 18.1992ZM95.5273 3.43359C95.9492 3.43359 96.3008 3.08203 96.3008 2.66016C96.3008 2.22656 95.9492 1.88672 95.5273 1.88672C95.0938 1.88672 94.7422 2.22656 94.7422 2.66016C94.7422 3.08203 95.0938 3.43359 95.5273 3.43359ZM99.0195 3.43359C99.4414 3.43359 99.8047 3.08203 99.8047 2.66016C99.8047 2.22656 99.4414 1.88672 99.0195 1.88672C98.5977 1.88672 98.2344 2.22656 98.2344 2.66016C98.2344 3.08203 98.5977 3.43359 99.0195 3.43359ZM106.953 18H107.867L109.121 12.082H116.715L115.461 18H116.363L118.965 5.8125H118.051L116.879 11.2969H109.285L110.469 5.8125H109.543L106.953 18ZM120.934 11.2617C121.438 8.44922 123.453 6.43359 125.996 6.43359C128.34 6.43359 129.676 8.05078 129.676 10.3711C129.676 10.7812 129.664 10.9922 129.605 11.2617H120.934ZM124.578 18.1992C127.145 18.1992 129.137 16.7578 129.863 14.5195H128.938C128.27 16.3125 126.711 17.3789 124.625 17.3789C122.223 17.3789 120.711 15.7383 120.711 13.1016C120.711 12.8438 120.746 12.4805 120.805 12.0352H130.414C130.52 11.5898 130.59 10.9688 130.59 10.4297C130.59 7.46484 128.832 5.61328 126.02 5.61328C122.434 5.61328 119.797 8.88281 119.797 13.1719C119.797 16.1836 121.59 18.1992 124.578 18.1992ZM142.379 5.8125H132.664L132.5 6.60938H136.906L134.469 18H135.383L137.82 6.60938H142.215L142.379 5.8125ZM151.227 17.3906C149.41 17.3906 148.168 16.3945 148.168 14.9297C148.168 13.1602 149.668 12.0938 152.305 11.9531L156.336 11.7188L155.891 13.7578C155.434 15.8555 153.465 17.3906 151.227 17.3906ZM151.051 18.1875C152.879 18.1875 154.578 17.25 155.445 15.8086H155.492L155.023 18H155.914L157.613 9.97266C157.695 9.60938 157.73 9.24609 157.73 8.92969C157.73 6.9375 156.137 5.61328 153.711 5.61328C151.086 5.61328 149.152 7.06641 148.73 9.25781H149.668C150.043 7.52344 151.531 6.44531 153.641 6.44531C155.633 6.44531 156.816 7.41797 156.816 9.02344C156.816 9.30469 156.781 9.60938 156.711 9.9375L156.488 10.957L152.305 11.1914C149.094 11.3672 147.254 12.7266 147.254 15C147.254 16.875 148.848 18.1875 151.051 18.1875ZM169.73 5.8125H168.43L160.918 11.4023H160.859L162.043 5.8125H161.129L158.539 18H159.453L160.742 11.9648H160.801L166.332 18H167.516L161.797 11.6953L169.73 5.8125ZM180.301 5.8125H179L171.488 11.4023H171.43L172.613 5.8125H171.699L169.109 18H170.023L171.312 11.9648H171.371L176.902 18H178.086L172.367 11.6953L180.301 5.8125ZM183.547 17.3906C181.73 17.3906 180.488 16.3945 180.488 14.9297C180.488 13.1602 181.988 12.0938 184.625 11.9531L188.656 11.7188L188.211 13.7578C187.754 15.8555 185.785 17.3906 183.547 17.3906ZM183.371 18.1875C185.199 18.1875 186.898 17.25 187.766 15.8086H187.812L187.344 18H188.234L189.934 9.97266C190.016 9.60938 190.051 9.24609 190.051 8.92969C190.051 6.9375 188.457 5.61328 186.031 5.61328C183.406 5.61328 181.473 7.06641 181.051 9.25781H181.988C182.363 7.52344 183.852 6.44531 185.961 6.44531C187.953 6.44531 189.137 7.41797 189.137 9.02344C189.137 9.30469 189.102 9.60938 189.031 9.9375L188.809 10.957L184.625 11.1914C181.414 11.3672 179.574 12.7266 179.574 15C179.574 16.875 181.168 18.1875 183.371 18.1875ZM190.988 22.1719C192.395 22.1719 193.344 21.5977 194.551 19.5L202.531 5.8125H201.512L195.055 17.0508H195.008L193.18 5.8125H192.266L194.34 18.1406L193.754 19.1719C192.828 20.7773 192.055 21.375 191.023 21.375C190.848 21.375 190.531 21.3398 190.32 21.2812L190.18 22.0781C190.414 22.1367 190.766 22.1719 190.988 22.1719ZM201.477 18H202.391L203.645 12.082H211.238L209.984 18H210.887L213.488 5.8125H212.574L211.402 11.2969H203.809L204.992 5.8125H204.066L201.477 18ZM224.973 5.8125H215.258L215.094 6.60938H219.5L217.062 18H217.977L220.414 6.60938H224.809L224.973 5.8125ZM227.281 17.3906C225.465 17.3906 224.223 16.3945 224.223 14.9297C224.223 13.1602 225.723 12.0938 228.359 11.9531L232.391 11.7188L231.945 13.7578C231.488 15.8555 229.52 17.3906 227.281 17.3906ZM227.105 18.1875C228.934 18.1875 230.633 17.25 231.5 15.8086H231.547L231.078 18H231.969L233.668 9.97266C233.75 9.60938 233.785 9.24609 233.785 8.92969C233.785 6.9375 232.191 5.61328 229.766 5.61328C227.141 5.61328 225.207 7.06641 224.785 9.25781H225.723C226.098 7.52344 227.586 6.44531 229.695 6.44531C231.688 6.44531 232.871 7.41797 232.871 9.02344C232.871 9.30469 232.836 9.60938 232.766 9.9375L232.543 10.957L228.359 11.1914C225.148 11.3672 223.309 12.7266 223.309 15C223.309 16.875 224.902 18.1875 227.105 18.1875ZM236.68 4.875H237.57C238.109 2.95312 239.621 1.71094 241.613 1.71094C243.77 1.71094 244.988 3.05859 244.988 4.79297C244.988 6.44531 244.016 7.73438 241.965 8.54297C240.148 9.25781 239.293 10.1367 238.918 11.9297L238.637 13.207H239.574L239.82 12.0234C240.113 10.6055 240.852 9.79688 242.527 9.15234C244.719 8.30859 245.961 6.69141 245.961 4.69922C245.961 2.57812 244.273 0.878906 241.684 0.878906C239.07 0.878906 237.23 2.46094 236.68 4.875ZM238.391 18.0938C238.824 18.0938 239.176 17.7422 239.176 17.3086C239.176 16.8867 238.824 16.5352 238.391 16.5352C237.969 16.5352 237.617 16.8867 237.617 17.3086C237.617 17.7422 237.969 18.0938 238.391 18.0938Z" fill="url(#paint0_linear_8_4)"/>
<defs>
<linearGradient id="paint0_linear_8_4" x1="105.8" y1="-5" x2="103.862" y2="36.2041" gradientUnits="userSpaceOnUse">
<stop stop-color="#4A89D3"/>
<stop offset="1" stop-color="#121B74"/>
</linearGradient>
</defs>
</svg>
